<?xml version="1.0" standalone="no"?>
<!DOCTYPE svg PUBLIC "-//W3C//DTD SVG 20010904//EN"
 "http://www.w3.org/TR/2001/REC-SVG-20010904/DTD/svg10.dtd">
<svg version="1.0" xmlns="http://www.w3.org/2000/svg"
 width="1443.000000pt" height="1443.000000pt" viewBox="0 0 1443.000000 1443.000000"
 preserveAspectRatio="xMidYMid meet">

<g transform="translate(0.000000,1443.000000) scale(0.100000,-0.100000)"
fill="#000000" stroke="none">
<path d="M7407 12998 c-35 -68 -111 -211 -167 -318 -56 -107 -129 -247 -162
-310 -34 -63 -78 -146 -98 -185 -21 -38 -138 -261 -260 -495 -122 -234 -237
-452 -255 -485 -18 -33 -60 -112 -93 -175 -76 -146 -432 -824 -637 -1215 -87
-165 -250 -475 -363 -690 -112 -214 -294 -561 -404 -770 -110 -209 -250 -474
-310 -590 -61 -115 -152 -289 -203 -385 -51 -96 -119 -227 -152 -290 -34 -63
-177 -335 -318 -605 -141 -269 -284 -542 -317 -605 -34 -63 -73 -137 -88 -165
-15 -27 -59 -111 -97 -185 -65 -124 -402 -766 -521 -990 -27 -52 -193 -367
-367 -700 -175 -333 -406 -774 -515 -980 -109 -206 -295 -562 -415 -790 -119
-228 -233 -443 -252 -477 -19 -35 -32 -63 -30 -63 3 0 40 44 83 97 43 54 189
235 324 403 135 168 520 645 855 1060 336 415 615 762 622 770 7 8 53 66 103
128 l91 112 4109 0 4109 0 308 -376 c169 -207 319 -390 333 -408 73 -92 395
-483 407 -496 9 -8 -30 73 -84 180 -55 107 -167 326 -248 485 -81 160 -191
376 -245 480 -54 105 -173 339 -265 520 -92 182 -191 375 -220 430 -29 55
-139 271 -245 480 -106 209 -232 457 -280 550 -48 94 -156 305 -240 470 -84
165 -192 377 -240 470 -48 94 -156 305 -240 470 -84 165 -206 404 -270 530
-65 127 -236 462 -380 745 -144 283 -311 610 -370 725 -59 116 -174 341 -255
500 -81 160 -199 391 -263 515 -63 124 -167 329 -232 455 -65 127 -182 356
-260 510 -78 154 -186 366 -240 470 -54 105 -225 440 -380 745 -156 305 -286
559 -290 563 -4 5 -37 -47 -73 -115z m378 -4143 c130 -159 303 -371 384 -470
81 -99 412 -504 737 -900 324 -396 681 -832 794 -970 112 -137 232 -284 266
-325 302 -364 1174 -1436 1174 -1442 0 -4 -1609 -8 -3575 -8 -1966 0 -3575 3
-3575 8 0 7 19 31 292 367 80 100 311 386 512 635 202 250 398 493 436 540 38
47 198 245 355 440 286 355 625 774 1041 1290 123 151 359 444 525 650 322
401 390 483 394 478 1 -2 109 -133 240 -293z"/>
<path d="M5720 6781 c-19 -10 -42 -29 -52 -42 -9 -13 -74 -211 -143 -439 -174
-572 -297 -973 -361 -1180 -30 -96 -54 -178 -54 -182 0 -5 102 -7 228 -6 l227
3 45 182 45 183 290 0 290 0 45 -185 45 -185 228 0 c125 0 227 3 227 8 0 4
-20 72 -44 152 -24 80 -107 354 -185 610 -282 934 -310 1024 -329 1049 -31 43
-71 50 -277 50 -167 1 -195 -1 -225 -18z m325 -746 c53 -209 103 -402 111
-429 8 -27 14 -51 14 -53 0 -2 -101 -3 -225 -3 -124 0 -225 2 -225 5 0 3 23
94 51 203 58 226 146 569 160 626 6 21 12 36 14 34 2 -2 47 -174 100 -383z"/>
<path d="M7025 6785 c-59 -21 -110 -81 -124 -144 -18 -83 -15 -1504 3 -1564
19 -65 49 -101 101 -126 44 -20 57 -21 492 -21 414 0 451 2 488 19 48 22 79
54 100 103 12 31 15 86 15 308 l0 270 -205 0 -205 0 0 -175 0 -175 -190 0
-190 0 2 583 3 582 185 0 185 0 3 -157 3 -158 204 0 205 0 0 258 c0 228 -3
262 -19 297 -22 50 -69 91 -119 105 -23 6 -201 10 -467 10 -344 -1 -438 -4
-470 -15z"/>
<path d="M8438 6790 c-52 -16 -99 -52 -121 -94 l-22 -41 0 -785 c0 -432 3
-797 8 -812 12 -43 64 -95 115 -115 43 -16 86 -18 477 -18 462 0 475 1 536 52
61 52 64 65 67 326 l4 237 -204 0 -203 0 0 -148 0 -147 -202 -3 -203 -2 0 260
0 260 348 0 348 0 57 58 57 58 0 369 c0 210 -4 385 -10 404 -14 51 -50 97 -95
123 -40 23 -40 23 -485 25 -245 1 -457 -2 -472 -7z m660 -527 l2 -223 -205 0
-205 0 0 218 c0 120 3 222 7 226 4 3 95 5 202 4 l196 -3 3 -222z"/>
<path d="M4930 3640 l0 -189 -102 -3 -103 -3 -3 -182 -2 -182 102 -3 103 -3 5
-705 c5 -768 3 -732 62 -787 51 -47 91 -53 384 -53 l274 0 0 185 0 185 -145 0
-145 0 0 590 0 590 140 0 141 0 -3 183 -3 182 -137 3 -138 3 0 189 0 190 -215
0 -215 0 0 -190z"/>
<path d="M7368 2685 l2 -1145 213 2 212 3 5 430 5 430 30 -65 c17 -36 102
-230 190 -432 l159 -368 228 0 c125 0 228 2 228 5 0 2 -108 234 -240 515 -132
281 -240 517 -240 525 0 12 156 325 361 721 l78 152 -31 6 c-17 3 -115 6 -219
6 -143 0 -191 -3 -201 -13 -7 -8 -85 -167 -173 -355 -88 -188 -163 -342 -167
-342 -5 0 -8 241 -8 535 l0 535 -217 0 -218 0 3 -1145z"/>
<path d="M6013 3460 c-71 -11 -113 -38 -143 -91 -24 -43 -25 -51 -28 -266 l-3
-223 195 0 196 0 0 130 0 130 210 0 210 0 -2 -217 -3 -218 -345 -5 c-226 -3
-354 -9 -371 -17 -38 -17 -87 -77 -99 -123 -7 -27 -10 -182 -8 -463 l3 -422
25 -45 c17 -31 39 -52 70 -68 42 -22 53 -23 170 -18 69 2 217 19 329 35 112
17 207 31 212 31 5 0 9 -13 9 -30 l0 -29 206 -3 c113 -2 208 -1 210 1 10 10 4
1702 -7 1750 -15 70 -46 112 -104 141 l-50 25 -415 2 c-228 1 -438 -2 -467 -7z
m637 -1304 c0 -140 -3 -257 -8 -260 -4 -2 -99 -8 -210 -12 l-202 -7 0 267 0
266 210 0 210 0 0 -254z"/>
<path d="M8925 3435 c-50 -18 -100 -71 -114 -122 -7 -25 -11 -299 -11 -829 l0
-792 28 -53 c22 -42 38 -58 77 -79 l49 -25 429 -3 c485 -3 517 0 578 55 61 55
69 97 69 360 l0 223 -205 0 -205 0 0 -160 0 -160 -205 0 -205 0 0 270 0 270
350 0 351 0 59 63 60 62 -3 395 c-2 387 -2 396 -24 437 -25 45 -59 74 -112 91
-54 19 -913 16 -966 -3z m690 -530 l0 -230 -202 -3 -203 -2 0 228 c0 126 3
232 7 236 4 3 95 5 202 4 l196 -3 0 -230z"/>
<path d="M12450 2701 c-111 -36 -170 -115 -170 -228 0 -193 228 -294 378 -168
41 34 70 91 78 149 12 86 -45 189 -128 232 -36 18 -122 27 -158 15z m133 -57
c98 -50 133 -153 86 -251 -22 -46 -77 -85 -136 -98 -81 -16 -180 49 -203 135
-15 53 -2 115 32 163 42 59 153 85 221 51z"/>
<path d="M12448 2589 c-50 -26 -72 -69 -65 -128 10 -94 116 -142 193 -89 28
19 54 55 54 73 0 14 -58 2 -73 -15 -47 -55 -149 9 -115 73 26 50 69 60 111 27
25 -20 77 -28 77 -11 0 18 -45 64 -76 77 -44 18 -61 17 -106 -7z"/>
<path d="M10393 2438 c-12 -6 -27 -24 -32 -41 -15 -42 -15 -763 0 -805 16 -46
55 -54 242 -50 212 4 197 -17 197 269 l0 220 -117 -3 -118 -3 0 -55 0 -55 52
-3 51 -3 1 -124 2 -125 -91 0 -90 0 0 335 0 335 91 0 90 0 -3 -77 -3 -78 65 0
65 0 0 117 c0 160 11 152 -208 155 -109 2 -180 -2 -194 -9z"/>
<path d="M10905 2117 c-3 -7 -4 -138 -3 -292 l3 -280 62 -3 63 -3 2 238 3 238
50 0 50 0 5 -65 5 -65 60 0 60 0 3 85 c4 104 -1 125 -34 146 -23 15 -34 16
-112 4 -64 -9 -87 -10 -90 -1 -5 16 -121 15 -127 -2z"/>
<path d="M11383 2116 c-42 -19 -45 -44 -41 -318 3 -193 5 -219 21 -235 15 -16
37 -18 172 -18 135 0 157 2 172 18 16 16 18 41 18 272 0 231 -2 256 -18 272
-15 15 -39 18 -155 21 -102 2 -145 -1 -169 -12z m217 -281 l0 -185 -65 0 -65
0 0 178 c0 98 3 182 7 185 3 4 33 7 65 7 l58 0 0 -185z"/>
<path d="M11827 2123 c-9 -8 -9 -480 -1 -522 12 -57 40 -66 151 -52 68 9 98
10 106 2 6 -6 37 -11 69 -11 l58 0 -2 293 -3 292 -60 0 -60 0 -5 -235 -5 -235
-60 0 -60 0 -3 238 -2 237 -59 0 c-31 0 -61 -3 -64 -7z"/>
<path d="M12317 2123 c-4 -3 -7 -183 -7 -400 l0 -393 65 0 65 0 0 104 0 103
88 5 c160 9 166 19 170 276 6 318 4 323 -154 302 -71 -10 -98 -10 -107 -1 -12
12 -109 16 -120 4z m248 -281 c0 -195 2 -192 -77 -192 l-48 0 0 178 c0 98 3
182 7 186 4 4 32 6 63 4 l55 -3 0 -173z"/>
</g>
</svg>
