<?xml version="1.0" standalone="no"?>
<!DOCTYPE svg PUBLIC "-//W3C//DTD SVG 20010904//EN"
 "http://www.w3.org/TR/2001/REC-SVG-20010904/DTD/svg10.dtd">
<svg version="1.0" xmlns="http://www.w3.org/2000/svg"
 width="200.000000pt" height="200.000000pt" viewBox="0 0 200.000000 200.000000"
 preserveAspectRatio="xMidYMid meet">

<g transform="translate(0.000000,200.000000) scale(0.100000,-0.100000)"
fill="#000000" stroke="none">
<path d="M937 1408 c-47 -89 -176 -336 -286 -547 -110 -212 -200 -386 -198
-387 1 -1 43 48 92 109 l90 112 395 3 395 3 48 -53 c45 -50 33 -22 -193 427
-134 264 -246 484 -250 488 -4 5 -46 -65 -93 -155z m272 -646 c-92 -1 -246 -1
-343 0 l-175 3 170 212 171 212 172 -212 173 -212 -168 -3z"/>
<path d="M826 877 c-14 -47 -26 -88 -26 -91 0 -13 38 -5 44 9 3 9 18 15 36 15
20 0 30 -5 30 -15 0 -9 9 -15 24 -15 l24 0 -27 88 c-24 78 -30 87 -53 90 -25
3 -28 -1 -52 -81z m64 -6 c7 -27 6 -31 -11 -31 -20 0 -23 10 -13 48 8 27 12
25 24 -17z"/>
<path d="M977 954 c-4 -4 -7 -45 -7 -91 l0 -84 58 3 c56 3 57 4 57 33 0 20 -5
31 -17 33 -13 2 -18 -3 -18 -17 0 -14 -6 -21 -20 -21 -18 0 -20 7 -20 60 0 48
3 60 16 60 9 0 18 -9 21 -20 9 -33 38 -20 38 15 0 29 -2 30 -50 33 -28 2 -54
0 -58 -4z"/>
<path d="M1105 938 c-3 -13 -5 -53 -3 -88 l3 -65 58 -3 57 -3 0 31 c0 23 -4
30 -20 30 -11 0 -20 -7 -20 -15 0 -8 -9 -15 -20 -15 -15 0 -20 7 -20 25 0 23
4 25 41 25 l40 0 -3 48 -3 47 -52 3 c-48 3 -53 1 -58 -20z m75 -28 c0 -13 -7
-20 -20 -20 -13 0 -20 7 -20 20 0 13 7 20 20 20 13 0 20 -7 20 -20z"/>
<path d="M780 650 c0 -11 -4 -20 -10 -20 -5 0 -10 -7 -10 -15 0 -8 5 -15 10
-15 6 0 10 -32 10 -75 l0 -75 35 0 c24 0 35 5 35 15 0 8 -7 15 -15 15 -12 0
-15 13 -15 60 0 47 3 60 15 60 8 0 15 7 15 15 0 8 -7 15 -15 15 -8 0 -15 9
-15 20 0 13 -7 20 -20 20 -13 0 -20 -7 -20 -20z"/>
<path d="M1010 560 l0 -110 25 0 c21 0 25 5 26 33 l0 32 16 -32 c10 -19 24
-33 35 -33 23 0 23 12 -2 60 l-20 40 20 40 c20 40 20 40 1 40 -12 0 -27 -12
-35 -27 l-15 -28 -1 48 c0 43 -2 47 -25 47 l-25 0 0 -110z"/>
<path d="M870 605 c0 -16 6 -25 15 -25 8 0 15 5 15 10 0 6 11 10 24 10 19 0
23 -4 19 -20 -4 -15 -14 -20 -39 -20 -37 0 -49 -21 -42 -76 3 -28 5 -29 61
-32 l57 -3 1 66 c1 36 2 72 2 80 0 8 -1 20 -2 25 0 6 -26 10 -56 10 -52 0 -55
-1 -55 -25z m70 -100 c0 -18 -5 -25 -20 -25 -15 0 -20 7 -20 25 0 18 5 25 20
25 15 0 20 -7 20 -25z"/>
<path d="M1154 617 c-3 -8 -4 -47 -2 -88 l3 -74 58 -3 57 -3 0 31 c0 23 -4 30
-20 30 -11 0 -20 -7 -20 -15 0 -8 -9 -15 -20 -15 -15 0 -20 7 -20 25 0 23 4
25 40 25 l40 0 0 50 0 50 -55 0 c-37 0 -57 -4 -61 -13z m76 -37 c0 -13 -7 -20
-20 -20 -13 0 -20 7 -20 20 0 13 7 20 20 20 13 0 20 -7 20 -20z"/>
<path d="M1510 550 c-8 -5 -12 -12 -9 -15 4 -3 12 1 19 10 14 17 11 19 -10 5z"/>
<path d="M1318 533 c-14 -3 -18 -15 -18 -44 0 -35 3 -39 25 -39 18 0 25 5 25
20 0 25 -17 26 -23 3 -3 -10 -5 -4 -6 14 -1 25 2 31 14 27 8 -4 15 -1 15 4 0
14 -11 19 -32 15z"/>
<path d="M1361 473 c2 -24 2 -25 6 -5 2 12 9 20 14 17 5 -4 9 -1 9 4 0 6 -7
11 -15 11 -10 0 -15 -9 -14 -27z"/>
<path d="M1400 475 c0 -18 5 -25 20 -25 15 0 20 7 20 25 0 18 -5 25 -20 25
-15 0 -20 -7 -20 -25z m30 0 c0 -8 -4 -15 -10 -15 -5 0 -10 7 -10 15 0 8 5 15
10 15 6 0 10 -7 10 -15z"/>
<path d="M1451 478 c-1 -19 4 -28 14 -28 10 0 15 9 14 28 -2 27 -2 27 -7 2
l-5 -25 -8 25 -7 25 -1 -27z"/>
<path d="M1490 465 c0 -39 4 -42 26 -21 21 22 18 56 -6 56 -16 0 -20 -7 -20
-35z m27 3 c-3 -8 -6 -5 -6 6 -1 11 2 17 5 13 3 -3 4 -12 1 -19z"/>
</g>
</svg>
