<?xml version="1.0" encoding="UTF-8"?>
<svg id="Layer_2" data-name="Layer 2" xmlns="http://www.w3.org/2000/svg" viewBox="0 0 1135.48 1178.33">
  <defs>
    <style>
      .cls-1 {
        fill: #fff;
        stroke-width: 0px;
      }
    </style>
  </defs>
  <g id="Layer_1-2" data-name="Layer 1">
    <g>
      <path class="cls-1" d="M602.42,11.53c-3.5,6.8-11.1,21.1-16.7,31.8s-12.9,24.7-16.2,31c-3.4,6.3-7.8,14.6-9.8,18.5-2.1,3.8-13.8,26.1-26,49.5s-23.7,45.2-25.5,48.5-6,11.2-9.3,17.5c-7.6,14.6-43.2,82.4-63.7,121.5-8.7,16.5-25,47.5-36.3,69-11.2,21.4-29.4,56.1-40.4,77s-25,47.4-31,59c-6.1,11.5-15.2,28.9-20.3,38.5s-11.9,22.7-15.2,29c-3.4,6.3-17.7,33.5-31.8,60.5-14.1,26.9-28.4,54.2-31.7,60.5-3.4,6.3-7.3,13.7-8.8,16.5-1.5,2.7-5.9,11.1-9.7,18.5-6.5,12.4-40.2,76.6-52.1,99-2.7,5.2-19.3,36.7-36.7,70-17.5,33.3-40.6,77.4-51.5,98s-29.5,56.2-41.5,79c-11.9,22.8-23.3,44.3-25.2,47.7-1.9,3.5-3.2,6.3-3,6.3.3,0,4-4.4,8.3-9.7,4.3-5.4,18.9-23.5,32.4-40.3s52-64.5,85.5-106c33.6-41.5,61.5-76.2,62.2-77s5.3-6.6,10.3-12.8l9.1-11.2h821.8l30.8,37.6c16.9,20.7,31.9,39,33.3,40.8,7.3,9.2,39.5,48.3,40.7,49.6.9.8-3-7.3-8.4-18-5.5-10.7-16.7-32.6-24.8-48.5-8.1-16-19.1-37.6-24.5-48-5.4-10.5-17.3-33.9-26.5-52-9.2-18.2-19.1-37.5-22-43s-13.9-27.1-24.5-48-23.2-45.7-28-55c-4.8-9.4-15.6-30.5-24-47s-19.2-37.7-24-47c-4.8-9.4-15.6-30.5-24-47s-20.6-40.4-27-53c-6.5-12.7-23.6-46.2-38-74.5s-31.1-61-37-72.5c-5.9-11.6-17.4-34.1-25.5-50-8.1-16-19.9-39.1-26.3-51.5-6.3-12.4-16.7-32.9-23.2-45.5-6.5-12.7-18.2-35.6-26-51s-18.6-36.6-24-47c-5.4-10.5-22.5-44-38-74.5C623.12,25.83,610.12.43,609.72.03c-.4-.5-3.7,4.7-7.3,11.5ZM640.22,425.83c13,15.9,30.3,37.1,38.4,47s41.2,50.4,73.7,90c32.4,39.6,68.1,83.2,79.4,97,11.2,13.7,23.2,28.4,26.6,32.5,30.2,36.4,117.4,143.6,117.4,144.2,0,.4-160.9.8-357.5.8s-357.5-.3-357.5-.8c0-.7,1.9-3.1,29.2-36.7,8-10,31.1-38.6,51.2-63.5,20.2-25,39.8-49.3,43.6-54s19.8-24.5,35.5-44c28.6-35.5,62.5-77.4,104.1-129,12.3-15.1,35.9-44.4,52.5-65,32.2-40.1,39-48.3,39.4-47.8.1.2,10.9,13.3,24,29.3Z"/>
      <path class="cls-1" d="M433.72,633.23c-1.9,1-4.2,2.9-5.2,4.2-.9,1.3-7.4,21.1-14.3,43.9-17.4,57.2-29.7,97.3-36.1,118-3,9.6-5.4,17.8-5.4,18.2,0,.5,10.2.7,22.8.6l22.7-.3,4.5-18.2,4.5-18.3h58l4.5,18.5,4.5,18.5h22.8c12.5,0,22.7-.3,22.7-.8,0-.4-2-7.2-4.4-15.2s-10.7-35.4-18.5-61c-28.2-93.4-31-102.4-32.9-104.9-3.1-4.3-7.1-5-27.7-5-16.7-.1-19.5.1-22.5,1.8ZM466.22,707.83c5.3,20.9,10.3,40.2,11.1,42.9s1.4,5.1,1.4,5.3-10.1.3-22.5.3-22.5-.2-22.5-.5,2.3-9.4,5.1-20.3c5.8-22.6,14.6-56.9,16-62.6.6-2.1,1.2-3.6,1.4-3.4s4.7,17.4,10,38.3Z"/>
      <path class="cls-1" d="M564.22,632.83c-5.9,2.1-11,8.1-12.4,14.4-1.8,8.3-1.5,150.4.3,156.4,1.9,6.5,4.9,10.1,10.1,12.6,4.4,2,5.7,2.1,49.2,2.1s45.1-.2,48.8-1.9c4.8-2.2,7.9-5.4,10-10.3,1.2-3.1,1.5-8.6,1.5-30.8v-27h-41v35h-38l.2-58.3.3-58.2h37l.3,15.7.3,15.8h40.9v-25.8c0-22.8-.3-26.2-1.9-29.7-2.2-5-6.9-9.1-11.9-10.5-2.3-.6-20.1-1-46.7-1-34.4.1-43.8.4-47,1.5Z"/>
      <path class="cls-1" d="M705.52,632.33c-5.2,1.6-9.9,5.2-12.1,9.4l-2.2,4.1v78.5c0,43.2.3,79.7.8,81.2,1.2,4.3,6.4,9.5,11.5,11.5,4.3,1.6,8.6,1.8,47.7,1.8,46.2,0,47.5-.1,53.6-5.2,6.1-5.2,6.4-6.5,6.7-32.6l.4-23.7h-40.7v29.5l-20.2.3-20.3.2v-52h69.6l5.7-5.8,5.7-5.8v-36.9c0-21-.4-38.5-1-40.4-1.4-5.1-5-9.7-9.5-12.3q-4-2.3-48.5-2.5c-24.5-.1-45.7.2-47.2.7ZM771.52,685.03l.2,22.3h-41v-21.8c0-12,.3-22.2.7-22.6.4-.3,9.5-.5,20.2-.4l19.6.3.3,22.2Z"/>
      <path class="cls-1" d="M354.72,947.33v18.9l-10.2.3-10.3.3-.3,18.2-.2,18.2,10.2.3,10.3.3.5,70.5c.5,76.8.3,73.2,6.2,78.7,5.1,4.7,9.1,5.3,38.4,5.3h27.4v-37h-29v-118h28.1l-.3-18.3-.3-18.2-13.7-.3-13.8-.3v-37.9h-43v19Z"/>
      <path class="cls-1" d="M598.52,1042.83l.2,114.5,21.3-.2,21.2-.3.5-43,.5-43,3,6.5c1.7,3.6,10.2,23,19,43.2l15.9,36.8h22.8c12.5,0,22.8-.2,22.8-.5,0-.2-10.8-23.4-24-51.5s-24-51.7-24-52.5c0-1.2,15.6-32.5,36.1-72.1l7.8-15.2-3.1-.6c-1.7-.3-11.5-.6-21.9-.6-14.3,0-19.1.3-20.1,1.3-.7.8-8.5,16.7-17.3,35.5s-16.3,34.2-16.7,34.2c-.5,0-.8-24.1-.8-53.5v-53.5h-43.5l.3,114.5Z"/>
      <path class="cls-1" d="M463.02,965.33c-7.1,1.1-11.3,3.8-14.3,9.1-2.4,4.3-2.5,5.1-2.8,26.6l-.3,22.3h39.1v-26h42l-.2,21.7-.3,21.8-34.5.5c-22.6.3-35.4.9-37.1,1.7-3.8,1.7-8.7,7.7-9.9,12.3-.7,2.7-1,18.2-.8,46.3l.3,42.2,2.5,4.5c1.7,3.1,3.9,5.2,7,6.8,4.2,2.2,5.3,2.3,17,1.8,6.9-.2,21.7-1.9,32.9-3.5,11.2-1.7,20.7-3.1,21.2-3.1s.9,1.3.9,3v2.9l20.6.3c11.3.2,20.8.1,21-.1,1-1,.4-170.2-.7-175-1.5-7-4.6-11.2-10.4-14.1l-5-2.5-41.5-.2c-22.8-.1-43.8.2-46.7.7ZM526.72,1095.73c0,14-.3,25.7-.8,26-.4.2-9.9.8-21,1.2l-20.2.7v-53.3h42v25.4Z"/>
      <path class="cls-1" d="M754.22,967.83c-5,1.8-10,7.1-11.4,12.2-.7,2.5-1.1,29.9-1.1,82.9v79.2l2.8,5.3c2.2,4.2,3.8,5.8,7.7,7.9l4.9,2.5,42.9.3c48.5.3,51.7,0,57.8-5.5s6.9-9.7,6.9-36v-22.3h-41v32h-41v-54h70.1l5.9-6.3,6-6.2-.3-39.5c-.2-38.7-.2-39.6-2.4-43.7-2.5-4.5-5.9-7.4-11.2-9.1-5.4-1.9-91.3-1.6-96.6.3ZM823.22,1020.83v23l-20.2.3-20.3.2v-22.8c0-12.6.3-23.2.7-23.6.4-.3,9.5-.5,20.2-.4l19.6.3v23Z"/>
      <path class="cls-1" d="M1106.72,1041.23c-11.1,3.6-17,11.5-17,22.8,0,19.3,22.8,29.4,37.8,16.8,4.1-3.4,7-9.1,7.8-14.9,1.2-8.6-4.5-18.9-12.8-23.2-3.6-1.8-12.2-2.7-15.8-1.5ZM1120.02,1046.93c9.8,5,13.3,15.3,8.6,25.1-2.2,4.6-7.7,8.5-13.6,9.8-8.1,1.6-18-4.9-20.3-13.5-1.5-5.3-.2-11.5,3.2-16.3,4.2-5.9,15.3-8.5,22.1-5.1Z"/>
      <path class="cls-1" d="M1106.52,1052.43c-5,2.6-7.2,6.9-6.5,12.8,1,9.4,11.6,14.2,19.3,8.9,2.8-1.9,5.4-5.5,5.4-7.3,0-1.4-5.8-.2-7.3,1.5-4.7,5.5-14.9-.9-11.5-7.3,2.6-5,6.9-6,11.1-2.7,2.5,2,7.7,2.8,7.7,1.1,0-1.8-4.5-6.4-7.6-7.7-4.4-1.8-6.1-1.7-10.6.7Z"/>
      <path class="cls-1" d="M901.02,1067.53c-1.2.6-2.7,2.4-3.2,4.1-1.5,4.2-1.5,76.3,0,80.5,1.6,4.6,5.5,5.4,24.2,5,21.2-.4,19.7,1.7,19.7-26.9v-22l-11.7.3-11.8.3v11l5.2.3,5.1.3.1,12.4.2,12.5h-18.1v-67h18.1l-.3,7.7-.3,7.8h13v-11.7c0-16,1.1-15.2-20.8-15.5-10.9-.2-18,.2-19.4.9Z"/>
      <path class="cls-1" d="M952.22,1099.63c-.3.7-.4,13.8-.3,29.2l.3,28,6.2.3,6.3.3.2-23.8.3-23.8h10l.5,6.5.5,6.5h12l.3-8.5c.4-10.4-.1-12.5-3.4-14.6-2.3-1.5-3.4-1.6-11.2-.4-6.4.9-8.7,1-9,.1-.5-1.6-12.1-1.5-12.7.2Z"/>
      <path class="cls-1" d="M1000.02,1099.73c-4.2,1.9-4.5,4.4-4.1,31.8.3,19.3.5,21.9,2.1,23.5,1.5,1.6,3.7,1.8,17.2,1.8s15.7-.2,17.2-1.8c1.6-1.6,1.8-4.1,1.8-27.2s-.2-25.6-1.8-27.2c-1.5-1.5-3.9-1.8-15.5-2.1-10.2-.2-14.5.1-16.9,1.2ZM1021.72,1127.83v18.5h-13v-17.8c0-9.8.3-18.2.7-18.5.3-.4,3.3-.7,6.5-.7h5.8v18.5Z"/>
      <path class="cls-1" d="M1044.42,1099.03c-.9.8-.9,48-.1,52.2,1.2,5.7,4,6.6,15.1,5.2,6.8-.9,9.8-1,10.6-.2.6.6,3.7,1.1,6.9,1.1h5.8l-.2-29.3-.3-29.2h-12l-.5,23.5-.5,23.5h-12l-.3-23.8-.2-23.7h-5.9c-3.1,0-6.1.3-6.4.7Z"/>
      <path class="cls-1" d="M1093.42,1099.03c-.4.3-.7,18.3-.7,40v39.3h13v-20.7l8.8-.5c16-.9,16.6-1.9,17-27.6.6-31.8.4-32.3-15.4-30.2-7.1,1-9.8,1-10.7.1-1.2-1.2-10.9-1.6-12-.4ZM1118.22,1127.13c0,19.5.2,19.2-7.7,19.2h-4.8v-17.8c0-9.8.3-18.2.7-18.6s3.2-.6,6.3-.4l5.5.3v17.3Z"/>
    </g>
  </g>
</svg>