<?xml version="1.0" encoding="UTF-8"?>
<svg id="Layer_2" data-name="Layer 2" xmlns="http://www.w3.org/2000/svg" viewBox="0 0 144.01 116.41">
  <defs>
    <style>
      .cls-1 {
        fill: #4cbfd9;
      }

      .cls-1, .cls-2, .cls-3, .cls-4, .cls-5, .cls-6, .cls-7, .cls-8, .cls-9, .cls-10 {
        stroke-width: 0px;
      }

      .cls-2 {
        fill: #95ca5e;
      }

      .cls-3 {
        fill: #5ec0c0;
      }

      .cls-4 {
        fill: #102a70;
      }

      .cls-5 {
        fill: #a7cf37;
      }

      .cls-6 {
        fill: #83c683;
      }

      .cls-7 {
        fill: #204b88;
      }

      .cls-8 {
        fill: #70c3a4;
      }

      .cls-9 {
        fill: #2c6da0;
      }

      .cls-10 {
        fill: #3995bd;
      }
    </style>
  </defs>
  <g id="Layer_1-2" data-name="Layer 1">
    <g id="surface1">
      <path class="cls-4" d="M68.86,32.48c-1,0-2.02-.29-2.92-.89-2.42-1.61-3.07-4.89-1.45-7.3l8.68-13c1.62-2.42,4.89-3.07,7.31-1.45,2.42,1.61,3.07,4.89,1.45,7.3l-8.68,13c-1.02,1.52-2.68,2.34-4.39,2.34"/>
      <path class="cls-7" d="M54.91,28.24c-2.91,0-5.27-2.36-5.27-5.27V5.27c0-2.91,2.36-5.27,5.27-5.27s5.27,2.36,5.27,5.27v17.7c0,2.91-2.36,5.27-5.27,5.27"/>
      <path class="cls-9" d="M40.94,32.48c-1.7,0-3.37-.82-4.38-2.34l-10.83-16.2c-1.61-2.42-.96-5.69,1.45-7.3,2.42-1.62,5.7-.97,7.31,1.45l10.82,16.2c1.61,2.42.96,5.69-1.45,7.31-.9.6-1.92.89-2.93.89"/>
      <path class="cls-2" d="M118.27,95.72c-1,0-2.03-.29-2.92-.89l-42.59-28.46c-2.42-1.61-3.07-4.89-1.46-7.31,1.62-2.42,4.89-3.07,7.31-1.45l42.59,28.46c2.42,1.61,3.07,4.88,1.45,7.3-1.02,1.52-2.68,2.34-4.39,2.34"/>
      <path class="cls-10" d="M31.56,43.71c-.67,0-1.35-.13-2.02-.4l-20.53-8.5c-2.69-1.11-3.97-4.2-2.85-6.88,1.11-2.69,4.19-3.97,6.88-2.86l20.53,8.5c2.68,1.11,3.96,4.2,2.85,6.89-.84,2.03-2.8,3.25-4.87,3.25"/>
      <path class="cls-5" d="M138.74,53.38h-58.71c-2.91,0-5.27-2.36-5.27-5.27s2.36-5.27,5.27-5.27h58.71c2.91,0,5.27,2.36,5.27,5.27s-2.36,5.27-5.27,5.27"/>
      <path class="cls-3" d="M15.78,92.49c-1.35,0-2.7-.52-3.73-1.54-2.06-2.06-2.06-5.39,0-7.45l21.41-21.41c2.05-2.06,5.39-2.06,7.45,0,2.05,2.06,2.05,5.39,0,7.45l-21.41,21.41c-1.03,1.03-2.38,1.54-3.73,1.54"/>
      <path class="cls-8" d="M42.85,113.97c-.34,0-.69-.04-1.04-.11-2.86-.57-4.7-3.34-4.14-6.2l7.14-35.93c.57-2.86,3.35-4.71,6.2-4.14,2.85.57,4.71,3.34,4.14,6.2l-7.15,35.93c-.5,2.5-2.7,4.25-5.16,4.25"/>
      <path class="cls-1" d="M5.27,63.25c-2.46,0-4.66-1.73-5.16-4.24-.57-2.86,1.29-5.63,4.14-6.2l24.84-4.94c2.85-.57,5.62,1.29,6.2,4.14.57,2.85-1.29,5.62-4.14,6.2l-24.84,4.94c-.35.07-.69.1-1.03.1"/>
      <path class="cls-6" d="M81.01,116.41c-2.07,0-4.03-1.23-4.87-3.26l-16.49-39.8c-1.11-2.69.17-5.77,2.85-6.89,2.69-1.11,5.77.16,6.89,2.86l16.48,39.8c1.12,2.69-.16,5.77-2.85,6.88-.66.27-1.34.4-2.02.4"/>
    </g>
  </g>
</svg>