<?xml version="1.0" encoding="UTF-8"?>
<svg xmlns="http://www.w3.org/2000/svg" xmlns:xlink="http://www.w3.org/1999/xlink" width="740.46pt" height="116.41pt" viewBox="0 0 740.46 116.41" version="1.1">
<g id="surface1">
<path style=" stroke:none;fill-rule:nonzero;fill:rgb(6.274414%,16.470337%,43.920898%);fill-opacity:1;" d="M 68.859375 32.476562 C 67.855469 32.476562 66.839844 32.1875 65.9375 31.585938 C 63.519531 29.976562 62.867188 26.699219 64.484375 24.28125 L 73.167969 11.28125 C 74.785156 8.863281 78.058594 8.207031 80.476562 9.828125 C 82.894531 11.441406 83.546875 14.714844 81.929688 17.132812 L 73.246094 30.136719 C 72.230469 31.65625 70.5625 32.476562 68.859375 32.476562 "/>
<path style=" stroke:none;fill-rule:nonzero;fill:rgb(12.548828%,29.411316%,53.334045%);fill-opacity:1;" d="M 54.90625 28.242188 C 51.992188 28.242188 49.636719 25.882812 49.636719 22.972656 L 49.636719 5.269531 C 49.636719 2.359375 51.992188 0 54.90625 0 C 57.816406 0 60.171875 2.359375 60.171875 5.269531 L 60.171875 22.972656 C 60.171875 25.882812 57.816406 28.242188 54.90625 28.242188 "/>
<path style=" stroke:none;fill-rule:nonzero;fill:rgb(17.254639%,42.744446%,62.745667%);fill-opacity:1;" d="M 40.9375 32.476562 C 39.238281 32.476562 37.570312 31.65625 36.554688 30.136719 L 25.726562 13.933594 C 24.113281 11.515625 24.765625 8.242188 27.179688 6.628906 C 29.601562 5.007812 32.875 5.660156 34.492188 8.078125 L 45.316406 24.277344 C 46.929688 26.699219 46.28125 29.96875 43.863281 31.585938 C 42.960938 32.1875 41.945312 32.476562 40.9375 32.476562 "/>
<path style=" stroke:none;fill-rule:nonzero;fill:rgb(58.432007%,79.216003%,36.862183%);fill-opacity:1;" d="M 118.265625 95.71875 C 117.261719 95.71875 116.238281 95.433594 115.34375 94.832031 L 72.75 66.371094 C 70.328125 64.757812 69.679688 61.484375 71.292969 59.0625 C 72.914062 56.640625 76.1875 55.992188 78.605469 57.609375 L 121.199219 86.074219 C 123.617188 87.683594 124.269531 90.957031 122.652344 93.378906 C 121.632812 94.898438 119.96875 95.71875 118.265625 95.71875 "/>
<path style=" stroke:none;fill-rule:nonzero;fill:rgb(22.3526%,58.432007%,74.118042%);fill-opacity:1;" d="M 31.558594 43.707031 C 30.886719 43.707031 30.207031 43.578125 29.542969 43.308594 L 9.015625 34.804688 C 6.324219 33.691406 5.046875 30.605469 6.164062 27.921875 C 7.277344 25.230469 10.355469 23.953125 13.046875 25.066406 L 33.578125 33.570312 C 36.261719 34.683594 37.542969 37.765625 36.429688 40.457031 C 35.589844 42.484375 33.628906 43.707031 31.558594 43.707031 "/>
<path style=" stroke:none;fill-rule:nonzero;fill:rgb(65.490723%,81.176758%,21.568298%);fill-opacity:1;" d="M 138.738281 53.375 L 80.03125 53.375 C 77.121094 53.375 74.765625 51.019531 74.765625 48.109375 C 74.765625 45.199219 77.121094 42.839844 80.03125 42.839844 L 138.738281 42.839844 C 141.648438 42.839844 144.007812 45.199219 144.007812 48.109375 C 144.007812 51.019531 141.648438 53.375 138.738281 53.375 "/>
<path style=" stroke:none;fill-rule:nonzero;fill:rgb(36.862183%,75.294495%,75.294495%);fill-opacity:1;" d="M 15.78125 92.492188 C 14.429688 92.492188 13.085938 91.976562 12.054688 90.949219 C 9.996094 88.890625 9.996094 85.554688 12.054688 83.5 L 33.464844 62.089844 C 35.519531 60.03125 38.855469 60.03125 40.914062 62.089844 C 42.96875 64.148438 42.96875 67.480469 40.914062 69.539062 L 19.507812 90.949219 C 18.476562 91.976562 17.125 92.492188 15.78125 92.492188 "/>
<path style=" stroke:none;fill-rule:nonzero;fill:rgb(43.920898%,76.470947%,64.31427%);fill-opacity:1;" d="M 42.851562 113.96875 C 42.515625 113.96875 42.164062 113.929688 41.816406 113.859375 C 38.960938 113.292969 37.113281 110.519531 37.679688 107.664062 L 44.824219 71.738281 C 45.394531 68.882812 48.171875 67.03125 51.019531 67.597656 C 53.871094 68.164062 55.726562 70.9375 55.160156 73.792969 L 48.011719 109.722656 C 47.515625 112.226562 45.316406 113.96875 42.851562 113.96875 "/>
<path style=" stroke:none;fill-rule:nonzero;fill:rgb(29.803467%,74.902344%,85.098267%);fill-opacity:1;" d="M 5.265625 63.246094 C 2.800781 63.246094 0.601562 61.515625 0.101562 59.007812 C -0.464844 56.152344 1.386719 53.378906 4.242188 52.808594 L 29.082031 47.871094 C 31.933594 47.304688 34.707031 49.15625 35.277344 52.011719 C 35.84375 54.863281 33.992188 57.636719 31.136719 58.207031 L 6.296875 63.144531 C 5.949219 63.214844 5.605469 63.246094 5.265625 63.246094 "/>
<path style=" stroke:none;fill-rule:nonzero;fill:rgb(51.373291%,77.6474%,51.373291%);fill-opacity:1;" d="M 81.007812 116.410156 C 78.941406 116.410156 76.980469 115.183594 76.140625 113.152344 L 59.648438 73.351562 C 58.539062 70.660156 59.816406 67.582031 62.5 66.464844 C 65.191406 65.355469 68.273438 66.628906 69.386719 69.320312 L 85.871094 109.125 C 86.988281 111.8125 85.710938 114.890625 83.023438 116.007812 C 82.359375 116.28125 81.679688 116.410156 81.007812 116.410156 "/>
<path style=" stroke:none;fill-rule:nonzero;fill:rgb(0%,0%,0%);fill-opacity:1;" d="M 195.335938 56.671875 C 193.238281 57.785156 191.171875 58.199219 189.230469 58.199219 C 182.773438 58.199219 179.023438 53.78125 179.023438 47.640625 C 179.023438 41.570312 183.285156 36.734375 189.644531 36.734375 C 191.902344 36.734375 193.808594 37.242188 194.921875 37.847656 L 194.921875 40.488281 C 193.429688 39.691406 191.804688 39.152344 189.707031 39.152344 C 184.871094 39.152344 182.011719 42.839844 182.011719 47.515625 C 182.011719 52.378906 184.90625 55.78125 189.515625 55.78125 C 191.488281 55.78125 193.078125 55.210938 194.539062 54.414062 L 195.335938 56.671875 "/>
<path style=" stroke:none;fill-rule:nonzero;fill:rgb(0%,0%,0%);fill-opacity:1;" d="M 204.242188 50.664062 C 203.035156 50.695312 202.238281 50.886719 201.601562 51.203125 C 200.839844 51.648438 200.425781 52.410156 200.425781 53.335938 C 200.425781 54.890625 201.445312 55.910156 203.066406 55.910156 C 204.78125 55.910156 206.054688 54.859375 206.691406 54.191406 L 206.691406 50.566406 Z M 206.882812 56.261719 C 205.738281 57.339844 204.273438 58.199219 202.398438 58.199219 C 199.632812 58.199219 197.5625 56.386719 197.5625 53.492188 C 197.5625 51.488281 198.582031 50.15625 200.109375 49.421875 C 201.15625 48.914062 202.367188 48.722656 203.890625 48.660156 L 206.691406 48.5625 L 206.691406 47.769531 C 206.691406 45.640625 205.386719 44.714844 203.574219 44.714844 C 201.855469 44.714844 200.554688 45.257812 199.472656 45.894531 L 198.488281 43.953125 C 200.234375 42.902344 202.144531 42.457031 203.925781 42.457031 C 207.328125 42.457031 209.488281 44.082031 209.488281 47.707031 L 209.488281 53.175781 C 209.488281 55.75 209.585938 57.117188 209.773438 57.882812 L 207.359375 57.882812 L 206.882812 56.261719 "/>
<path style=" stroke:none;fill-rule:nonzero;fill:rgb(0%,0%,0%);fill-opacity:1;" d="M 213.304688 42.839844 L 215.691406 42.839844 L 216.007812 44.683594 C 217.628906 43.347656 219.316406 42.457031 221.222656 42.457031 C 223.609375 42.457031 225.804688 43.859375 225.804688 47.800781 L 225.804688 57.882812 L 223.003906 57.882812 L 223.003906 48.722656 C 223.003906 46.59375 222.496094 44.9375 220.429688 44.9375 C 218.902344 44.9375 217.441406 45.828125 216.105469 46.972656 L 216.105469 57.882812 L 213.304688 57.882812 L 213.304688 42.839844 "/>
<path style=" stroke:none;fill-rule:nonzero;fill:rgb(0%,0%,0%);fill-opacity:1;" d="M 235.503906 50.664062 C 234.296875 50.695312 233.5 50.886719 232.867188 51.203125 C 232.101562 51.648438 231.6875 52.410156 231.6875 53.335938 C 231.6875 54.890625 232.707031 55.910156 234.328125 55.910156 C 236.046875 55.910156 237.316406 54.859375 237.953125 54.191406 L 237.953125 50.566406 Z M 238.144531 56.261719 C 237 57.339844 235.535156 58.199219 233.660156 58.199219 C 230.894531 58.199219 228.828125 56.386719 228.828125 53.492188 C 228.828125 51.488281 229.84375 50.15625 231.371094 49.421875 C 232.421875 48.914062 233.628906 48.722656 235.15625 48.660156 L 237.953125 48.5625 L 237.953125 47.769531 C 237.953125 45.640625 236.648438 44.714844 234.835938 44.714844 C 233.117188 44.714844 231.816406 45.257812 230.734375 45.894531 L 229.75 43.953125 C 231.496094 42.902344 233.40625 42.457031 235.1875 42.457031 C 238.589844 42.457031 240.75 44.082031 240.75 47.707031 L 240.75 53.175781 C 240.75 55.75 240.847656 57.117188 241.035156 57.882812 L 238.621094 57.882812 L 238.144531 56.261719 "/>
<path style=" stroke:none;fill-rule:nonzero;fill:rgb(0%,0%,0%);fill-opacity:1;" d="M 254.109375 55.464844 L 254.109375 45.160156 C 253.410156 44.9375 252.867188 44.8125 251.914062 44.8125 C 249.019531 44.8125 246.699219 46.847656 246.699219 50.472656 C 246.699219 53.78125 248.703125 55.816406 251.945312 55.816406 C 252.644531 55.816406 253.535156 55.71875 254.109375 55.464844 Z M 243.804688 50.535156 C 243.804688 45.703125 247.273438 42.457031 251.753906 42.457031 C 252.519531 42.457031 253.34375 42.523438 254.109375 42.746094 L 254.109375 35.367188 L 256.90625 35.367188 L 256.90625 57.148438 C 255.730469 57.785156 253.789062 58.199219 251.882812 58.199219 C 247.398438 58.199219 243.804688 55.558594 243.804688 50.535156 "/>
<path style=" stroke:none;fill-rule:nonzero;fill:rgb(0%,0%,0%);fill-opacity:1;" d="M 261.234375 42.839844 L 264.03125 42.839844 L 264.03125 57.882812 L 261.234375 57.882812 Z M 260.820312 37.945312 C 260.820312 36.957031 261.550781 36.164062 262.601562 36.164062 C 263.683594 36.164062 264.445312 36.925781 264.445312 37.945312 C 264.445312 38.960938 263.652344 39.757812 262.601562 39.757812 C 261.550781 39.757812 260.820312 38.960938 260.820312 37.945312 "/>
<path style=" stroke:none;fill-rule:nonzero;fill:rgb(0%,0%,0%);fill-opacity:1;" d="M 274.015625 50.664062 C 272.808594 50.695312 272.015625 50.886719 271.378906 51.203125 C 270.613281 51.648438 270.203125 52.410156 270.203125 53.335938 C 270.203125 54.890625 271.21875 55.910156 272.839844 55.910156 C 274.558594 55.910156 275.828125 54.859375 276.464844 54.191406 L 276.464844 50.566406 Z M 276.65625 56.261719 C 275.511719 57.339844 274.050781 58.199219 272.171875 58.199219 C 269.40625 58.199219 267.339844 56.386719 267.339844 53.492188 C 267.339844 51.488281 268.355469 50.15625 269.882812 49.421875 C 270.933594 48.914062 272.140625 48.722656 273.667969 48.660156 L 276.464844 48.5625 L 276.464844 47.769531 C 276.464844 45.640625 275.160156 44.714844 273.351562 44.714844 C 271.632812 44.714844 270.328125 45.257812 269.246094 45.894531 L 268.261719 43.953125 C 270.011719 42.902344 271.917969 42.457031 273.699219 42.457031 C 277.101562 42.457031 279.265625 44.082031 279.265625 47.707031 L 279.265625 53.175781 C 279.265625 55.75 279.359375 57.117188 279.550781 57.882812 L 277.132812 57.882812 L 276.65625 56.261719 "/>
<path style=" stroke:none;fill-rule:nonzero;fill:rgb(0%,0%,0%);fill-opacity:1;" d="M 283.082031 42.839844 L 285.46875 42.839844 L 285.785156 44.683594 C 287.40625 43.347656 289.09375 42.457031 291 42.457031 C 293.386719 42.457031 295.578125 43.859375 295.578125 47.800781 L 295.578125 57.882812 L 292.78125 57.882812 L 292.78125 48.722656 C 292.78125 46.59375 292.273438 44.9375 290.203125 44.9375 C 288.679688 44.9375 287.214844 45.828125 285.878906 46.972656 L 285.878906 57.882812 L 283.082031 57.882812 L 283.082031 42.839844 "/>
<path style=" stroke:none;fill-rule:nonzero;fill:rgb(0%,0%,0%);fill-opacity:1;" d="M 306.996094 36.925781 L 309.734375 36.925781 L 319.207031 49.265625 C 320.449219 50.855469 321.339844 52.125 322.039062 53.175781 L 322.101562 53.175781 C 322.039062 52.03125 322.039062 51.011719 322.039062 49.519531 L 322.039062 36.925781 L 324.867188 36.925781 L 324.867188 57.882812 L 322.386719 57.882812 L 312.5625 45.066406 C 311.386719 43.539062 310.527344 42.332031 309.796875 41.28125 L 309.734375 41.28125 C 309.796875 42.269531 309.828125 43.285156 309.828125 44.78125 L 309.828125 57.882812 L 306.996094 57.882812 L 306.996094 36.925781 "/>
<path style=" stroke:none;fill-rule:nonzero;fill:rgb(0%,0%,0%);fill-opacity:1;" d="M 329.355469 55.335938 C 329.070312 54.511719 328.941406 53.714844 328.941406 52.476562 L 328.941406 42.839844 L 331.742188 42.839844 L 331.742188 51.96875 C 331.742188 52.921875 331.804688 53.589844 332.027344 54.191406 C 332.410156 55.242188 333.203125 55.75 334.445312 55.75 C 336.035156 55.75 337.527344 54.828125 338.289062 53.875 L 338.289062 42.839844 L 341.089844 42.839844 L 341.089844 53.238281 C 341.089844 55.75 341.183594 57.117188 341.40625 57.882812 L 338.925781 57.882812 L 338.449219 56.195312 C 337.179688 57.339844 335.523438 58.199219 333.554688 58.199219 C 332.089844 58.199219 330.152344 57.5625 329.355469 55.335938 "/>
<path style=" stroke:none;fill-rule:nonzero;fill:rgb(0%,0%,0%);fill-opacity:1;" d="M 344.492188 50.503906 C 344.492188 46.019531 347.546875 42.457031 352.125 42.457031 C 353.746094 42.457031 355.082031 42.902344 355.972656 43.414062 L 355.972656 45.863281 C 354.953125 45.195312 353.8125 44.78125 352.347656 44.78125 C 349.265625 44.78125 347.386719 47.164062 347.386719 50.34375 C 347.386719 53.875 349.265625 55.878906 352.15625 55.878906 C 353.683594 55.878906 354.765625 55.371094 355.75 54.828125 L 356.578125 56.800781 C 355.464844 57.5625 353.714844 58.199219 351.808594 58.199219 C 347.070312 58.199219 344.492188 54.765625 344.492188 50.503906 "/>
<path style=" stroke:none;fill-rule:nonzero;fill:rgb(0%,0%,0%);fill-opacity:1;" d="M 359.09375 35.367188 L 361.890625 35.367188 L 361.890625 54.128906 C 361.890625 55.273438 362.238281 55.625 363.035156 55.625 C 363.257812 55.625 363.703125 55.527344 363.957031 55.433594 L 364.53125 57.628906 C 363.828125 57.914062 362.941406 58.074219 362.207031 58.074219 C 360.109375 58.074219 359.09375 56.925781 359.09375 54.925781 L 359.09375 35.367188 "/>
<path style=" stroke:none;fill-rule:nonzero;fill:rgb(0%,0%,0%);fill-opacity:1;" d="M 375.597656 48.882812 C 375.53125 46.785156 374.515625 44.683594 372.257812 44.683594 C 370.09375 44.683594 368.789062 46.59375 368.757812 48.882812 Z M 365.898438 50.25 C 365.898438 45.671875 368.410156 42.457031 372.257812 42.457031 C 376.199219 42.457031 378.488281 45.480469 378.488281 50.28125 L 378.488281 50.980469 L 368.757812 50.980469 C 368.824219 53.8125 370.539062 55.910156 373.527344 55.910156 C 374.960938 55.910156 376.199219 55.464844 377.25 54.890625 L 378.140625 56.832031 C 376.742188 57.722656 374.898438 58.199219 373.179688 58.199219 C 368.1875 58.199219 365.898438 54.542969 365.898438 50.25 "/>
<path style=" stroke:none;fill-rule:nonzero;fill:rgb(0%,0%,0%);fill-opacity:1;" d="M 387.492188 50.664062 C 386.28125 50.695312 385.488281 50.886719 384.851562 51.203125 C 384.089844 51.648438 383.675781 52.410156 383.675781 53.335938 C 383.675781 54.890625 384.691406 55.910156 386.316406 55.910156 C 388.03125 55.910156 389.304688 54.859375 389.941406 54.191406 L 389.941406 50.566406 Z M 390.128906 56.261719 C 388.984375 57.339844 387.523438 58.199219 385.648438 58.199219 C 382.878906 58.199219 380.8125 56.386719 380.8125 53.492188 C 380.8125 51.488281 381.828125 50.15625 383.355469 49.421875 C 384.40625 48.914062 385.613281 48.722656 387.140625 48.660156 L 389.941406 48.5625 L 389.941406 47.769531 C 389.941406 45.640625 388.636719 44.714844 386.824219 44.714844 C 385.105469 44.714844 383.800781 45.257812 382.722656 45.894531 L 381.734375 43.953125 C 383.484375 42.902344 385.390625 42.457031 387.171875 42.457031 C 390.574219 42.457031 392.738281 44.082031 392.738281 47.707031 L 392.738281 53.175781 C 392.738281 55.75 392.832031 57.117188 393.023438 57.882812 L 390.605469 57.882812 L 390.128906 56.261719 "/>
<path style=" stroke:none;fill-rule:nonzero;fill:rgb(0%,0%,0%);fill-opacity:1;" d="M 396.554688 42.839844 L 398.910156 42.839844 L 399.226562 44.683594 C 400.816406 43 402.089844 42.457031 403.457031 42.457031 C 404.09375 42.457031 404.792969 42.617188 405.238281 42.902344 L 404.25 45.382812 C 403.773438 45.128906 403.296875 45.003906 402.820312 45.003906 C 401.738281 45.003906 400.753906 45.574219 399.355469 46.941406 L 399.355469 57.882812 L 396.554688 57.882812 L 396.554688 42.839844 "/>
<path style=" stroke:none;fill-rule:nonzero;fill:rgb(0%,0%,0%);fill-opacity:1;" d="M 181.265625 67.007812 L 184.09375 67.007812 L 184.09375 85.640625 L 191.757812 85.640625 L 191.757812 87.960938 L 181.265625 87.960938 L 181.265625 67.007812 "/>
<path style=" stroke:none;fill-rule:nonzero;fill:rgb(0%,0%,0%);fill-opacity:1;" d="M 200.21875 80.742188 C 199.011719 80.777344 198.214844 80.964844 197.578125 81.285156 C 196.816406 81.730469 196.402344 82.492188 196.402344 83.414062 C 196.402344 84.972656 197.421875 85.992188 199.042969 85.992188 C 200.761719 85.992188 202.03125 84.941406 202.667969 84.273438 L 202.667969 80.648438 Z M 202.859375 86.339844 C 201.714844 87.421875 200.25 88.28125 198.375 88.28125 C 195.609375 88.28125 193.539062 86.46875 193.539062 83.574219 C 193.539062 81.570312 194.558594 80.234375 196.085938 79.503906 C 197.136719 78.996094 198.34375 78.804688 199.867188 78.742188 L 202.667969 78.644531 L 202.667969 77.851562 C 202.667969 75.71875 201.363281 74.796875 199.550781 74.796875 C 197.835938 74.796875 196.53125 75.335938 195.449219 75.972656 L 194.464844 74.035156 C 196.214844 72.984375 198.121094 72.539062 199.902344 72.539062 C 203.304688 72.539062 205.464844 74.160156 205.464844 77.785156 L 205.464844 83.257812 C 205.464844 85.832031 205.5625 87.199219 205.753906 87.960938 L 203.335938 87.960938 L 202.859375 86.339844 "/>
<path style=" stroke:none;fill-rule:nonzero;fill:rgb(0%,0%,0%);fill-opacity:1;" d="M 219.460938 80.140625 C 219.460938 77.054688 217.902344 74.925781 215.039062 74.925781 C 213.578125 74.925781 212.75 75.371094 212.242188 75.59375 L 212.242188 85.546875 C 212.941406 85.800781 213.671875 85.894531 214.277344 85.894531 C 217.359375 85.894531 219.460938 83.636719 219.460938 80.140625 Z M 209.441406 87.324219 L 209.441406 65.449219 L 212.242188 65.449219 L 212.242188 73.175781 C 213.160156 72.824219 214.117188 72.539062 215.453125 72.539062 C 219.300781 72.539062 222.351562 75.117188 222.351562 80.011719 C 222.351562 85.226562 218.726562 88.28125 213.828125 88.28125 C 211.953125 88.28125 210.429688 87.867188 209.441406 87.324219 "/>
<path style=" stroke:none;fill-rule:nonzero;fill:rgb(0%,0%,0%);fill-opacity:1;" d="M 236.09375 80.425781 C 236.09375 77.183594 234.503906 74.859375 231.863281 74.859375 C 229.191406 74.859375 227.601562 77.183594 227.601562 80.425781 C 227.601562 83.636719 229.191406 85.957031 231.828125 85.957031 C 234.503906 85.957031 236.09375 83.636719 236.09375 80.425781 Z M 224.707031 80.425781 C 224.707031 75.972656 227.535156 72.539062 231.863281 72.539062 C 236.121094 72.539062 238.984375 75.972656 238.984375 80.425781 C 238.984375 84.847656 236.15625 88.28125 231.828125 88.28125 C 227.535156 88.28125 224.707031 84.847656 224.707031 80.425781 "/>
<path style=" stroke:none;fill-rule:nonzero;fill:rgb(0%,0%,0%);fill-opacity:1;" d="M 242.105469 72.921875 L 244.457031 72.921875 L 244.777344 74.765625 C 246.367188 73.082031 247.636719 72.539062 249.003906 72.539062 C 249.640625 72.539062 250.339844 72.699219 250.785156 72.984375 L 249.800781 75.464844 C 249.324219 75.210938 248.847656 75.082031 248.367188 75.082031 C 247.289062 75.082031 246.300781 75.65625 244.902344 77.023438 L 244.902344 87.960938 L 242.105469 87.960938 L 242.105469 72.921875 "/>
<path style=" stroke:none;fill-rule:nonzero;fill:rgb(0%,0%,0%);fill-opacity:1;" d="M 258.195312 80.742188 C 256.988281 80.777344 256.191406 80.964844 255.558594 81.285156 C 254.792969 81.730469 254.378906 82.492188 254.378906 83.414062 C 254.378906 84.972656 255.398438 85.992188 257.019531 85.992188 C 258.738281 85.992188 260.007812 84.941406 260.644531 84.273438 L 260.644531 80.648438 Z M 260.835938 86.339844 C 259.691406 87.421875 258.226562 88.28125 256.351562 88.28125 C 253.585938 88.28125 251.519531 86.46875 251.519531 83.574219 C 251.519531 81.570312 252.535156 80.234375 254.0625 79.503906 C 255.113281 78.996094 256.320312 78.804688 257.847656 78.742188 L 260.644531 78.644531 L 260.644531 77.851562 C 260.644531 75.71875 259.339844 74.796875 257.527344 74.796875 C 255.8125 74.796875 254.507812 75.335938 253.425781 75.972656 L 252.441406 74.035156 C 254.191406 72.984375 256.097656 72.539062 257.878906 72.539062 C 261.28125 72.539062 263.441406 74.160156 263.441406 77.785156 L 263.441406 83.257812 C 263.441406 85.832031 263.539062 87.199219 263.730469 87.960938 L 261.3125 87.960938 L 260.835938 86.339844 "/>
<path style=" stroke:none;fill-rule:nonzero;fill:rgb(0%,0%,0%);fill-opacity:1;" d="M 268.5 84.589844 L 268.5 75.179688 L 265.925781 75.179688 L 265.925781 72.921875 L 268.5 72.921875 L 268.5 69.488281 L 271.300781 68.597656 L 271.300781 72.921875 L 275.816406 72.921875 L 275.050781 75.179688 L 271.300781 75.179688 L 271.300781 84.050781 C 271.300781 85.386719 271.839844 85.957031 272.824219 85.957031 C 273.78125 85.957031 274.636719 85.546875 275.242188 85.164062 L 276.164062 87.105469 C 275.179688 87.800781 273.683594 88.28125 272.191406 88.28125 C 269.867188 88.28125 268.5 86.945312 268.5 84.589844 "/>
<path style=" stroke:none;fill-rule:nonzero;fill:rgb(0%,0%,0%);fill-opacity:1;" d="M 288.15625 80.425781 C 288.15625 77.183594 286.566406 74.859375 283.925781 74.859375 C 281.253906 74.859375 279.664062 77.183594 279.664062 80.425781 C 279.664062 83.636719 281.253906 85.957031 283.894531 85.957031 C 286.566406 85.957031 288.15625 83.636719 288.15625 80.425781 Z M 276.769531 80.425781 C 276.769531 75.972656 279.601562 72.539062 283.925781 72.539062 C 288.1875 72.539062 291.046875 75.972656 291.046875 80.425781 C 291.046875 84.847656 288.21875 88.28125 283.894531 88.28125 C 279.601562 88.28125 276.769531 84.847656 276.769531 80.425781 "/>
<path style=" stroke:none;fill-rule:nonzero;fill:rgb(0%,0%,0%);fill-opacity:1;" d="M 294.164062 72.921875 L 296.519531 72.921875 L 296.835938 74.765625 C 298.425781 73.082031 299.699219 72.539062 301.066406 72.539062 C 301.703125 72.539062 302.402344 72.699219 302.847656 72.984375 L 301.863281 75.464844 C 301.386719 75.210938 300.90625 75.082031 300.429688 75.082031 C 299.351562 75.082031 298.363281 75.65625 296.964844 77.023438 L 296.964844 87.960938 L 294.164062 87.960938 L 294.164062 72.921875 "/>
<path style=" stroke:none;fill-rule:nonzero;fill:rgb(0%,0%,0%);fill-opacity:1;" d="M 305.011719 72.921875 L 307.808594 72.921875 L 307.808594 87.960938 L 305.011719 87.960938 Z M 304.597656 68.023438 C 304.597656 67.039062 305.328125 66.242188 306.378906 66.242188 C 307.460938 66.242188 308.222656 67.007812 308.222656 68.023438 C 308.222656 69.042969 307.429688 69.835938 306.378906 69.835938 C 305.328125 69.835938 304.597656 69.042969 304.597656 68.023438 "/>
<path style=" stroke:none;fill-rule:nonzero;fill:rgb(0%,0%,0%);fill-opacity:1;" d="M 320.878906 78.964844 C 320.816406 76.863281 319.796875 74.765625 317.539062 74.765625 C 315.378906 74.765625 314.074219 76.671875 314.042969 78.964844 Z M 311.179688 80.332031 C 311.179688 75.75 313.691406 72.539062 317.539062 72.539062 C 321.484375 72.539062 323.773438 75.558594 323.773438 80.363281 L 323.773438 81.0625 L 314.042969 81.0625 C 314.105469 83.890625 315.824219 85.992188 318.8125 85.992188 C 320.242188 85.992188 321.484375 85.546875 322.53125 84.972656 L 323.421875 86.914062 C 322.023438 87.800781 320.179688 88.28125 318.460938 88.28125 C 313.46875 88.28125 311.179688 84.625 311.179688 80.332031 "/>
<path style=" stroke:none;fill-rule:nonzero;fill:rgb(0%,0%,0%);fill-opacity:1;" d="M 326.605469 84.847656 C 327.589844 85.417969 328.863281 85.992188 330.484375 85.992188 C 332.171875 85.992188 333.535156 85.386719 333.535156 83.828125 C 333.535156 80.777344 326.476562 81.792969 326.476562 76.800781 C 326.476562 74.414062 328.355469 72.539062 331.757812 72.539062 C 333.25 72.539062 334.617188 72.859375 335.699219 73.269531 L 335.699219 75.6875 C 334.617188 75.210938 333.378906 74.828125 331.882812 74.828125 C 330.484375 74.828125 329.242188 75.242188 329.242188 76.671875 C 329.242188 79.726562 336.304688 78.644531 336.304688 83.796875 C 336.304688 86.882812 333.695312 88.28125 330.578125 88.28125 C 328.480469 88.28125 326.765625 87.613281 325.714844 86.945312 L 326.605469 84.847656 "/>
<path style=" stroke:none;fill-rule:nonzero;fill:rgb(0%,0%,0%);fill-opacity:1;" d="M 444.347656 36.925781 L 447.175781 36.925781 L 447.175781 55.558594 L 454.839844 55.558594 L 454.839844 57.882812 L 444.347656 57.882812 L 444.347656 36.925781 "/>
<path style=" stroke:none;fill-rule:nonzero;fill:rgb(0%,0%,0%);fill-opacity:1;" d="M 463.300781 50.664062 C 462.09375 50.695312 461.296875 50.886719 460.660156 51.203125 C 459.898438 51.648438 459.484375 52.410156 459.484375 53.332031 C 459.484375 54.890625 460.503906 55.910156 462.125 55.910156 C 463.839844 55.910156 465.113281 54.859375 465.75 54.191406 L 465.75 50.566406 Z M 465.941406 56.257812 C 464.796875 57.339844 463.332031 58.199219 461.457031 58.199219 C 458.691406 58.199219 456.621094 56.386719 456.621094 53.492188 C 456.621094 51.488281 457.640625 50.152344 459.164062 49.421875 C 460.214844 48.914062 461.425781 48.722656 462.949219 48.660156 L 465.75 48.5625 L 465.75 47.769531 C 465.75 45.636719 464.445312 44.714844 462.632812 44.714844 C 460.914062 44.714844 459.613281 45.257812 458.53125 45.894531 L 457.546875 43.953125 C 459.292969 42.902344 461.203125 42.457031 462.984375 42.457031 C 466.386719 42.457031 468.546875 44.082031 468.546875 47.707031 L 468.546875 53.175781 C 468.546875 55.75 468.644531 57.117188 468.832031 57.882812 L 466.414062 57.882812 L 465.941406 56.257812 "/>
<path style=" stroke:none;fill-rule:nonzero;fill:rgb(0%,0%,0%);fill-opacity:1;" d="M 482.539062 50.058594 C 482.539062 46.972656 480.984375 44.84375 478.121094 44.84375 C 476.660156 44.84375 475.832031 45.289062 475.324219 45.511719 L 475.324219 55.464844 C 476.023438 55.71875 476.753906 55.8125 477.359375 55.8125 C 480.441406 55.8125 482.539062 53.554688 482.539062 50.058594 Z M 472.523438 57.246094 L 472.523438 35.367188 L 475.324219 35.367188 L 475.324219 43.09375 C 476.242188 42.746094 477.199219 42.457031 478.535156 42.457031 C 482.382812 42.457031 485.433594 45.035156 485.433594 49.929688 C 485.433594 55.144531 481.808594 58.199219 476.910156 58.199219 C 475.035156 58.199219 473.511719 57.785156 472.523438 57.246094 "/>
<path style=" stroke:none;fill-rule:nonzero;fill:rgb(0%,0%,0%);fill-opacity:1;" d="M 499.175781 50.34375 C 499.175781 47.101562 497.585938 44.78125 494.945312 44.78125 C 492.273438 44.78125 490.683594 47.101562 490.683594 50.34375 C 490.683594 53.554688 492.273438 55.878906 494.910156 55.878906 C 497.585938 55.878906 499.175781 53.554688 499.175781 50.34375 Z M 487.789062 50.34375 C 487.789062 45.894531 490.617188 42.457031 494.945312 42.457031 C 499.203125 42.457031 502.066406 45.894531 502.066406 50.34375 C 502.066406 54.765625 499.238281 58.199219 494.910156 58.199219 C 490.617188 58.199219 487.789062 54.765625 487.789062 50.34375 "/>
<path style=" stroke:none;fill-rule:nonzero;fill:rgb(0%,0%,0%);fill-opacity:1;" d="M 505.1875 42.839844 L 507.539062 42.839844 L 507.855469 44.683594 C 509.445312 43 510.71875 42.457031 512.085938 42.457031 C 512.722656 42.457031 513.421875 42.617188 513.867188 42.902344 L 512.882812 45.382812 C 512.40625 45.128906 511.925781 45.003906 511.449219 45.003906 C 510.367188 45.003906 509.382812 45.574219 507.984375 46.941406 L 507.984375 57.882812 L 505.1875 57.882812 L 505.1875 42.839844 "/>
<path style=" stroke:none;fill-rule:nonzero;fill:rgb(0%,0%,0%);fill-opacity:1;" d="M 521.277344 50.664062 C 520.070312 50.695312 519.273438 50.886719 518.640625 51.203125 C 517.875 51.648438 517.460938 52.410156 517.460938 53.332031 C 517.460938 54.890625 518.480469 55.910156 520.101562 55.910156 C 521.820312 55.910156 523.089844 54.859375 523.726562 54.191406 L 523.726562 50.566406 Z M 523.917969 56.257812 C 522.773438 57.339844 521.308594 58.199219 519.433594 58.199219 C 516.667969 58.199219 514.601562 56.386719 514.601562 53.492188 C 514.601562 51.488281 515.617188 50.152344 517.144531 49.421875 C 518.195312 48.914062 519.402344 48.722656 520.929688 48.660156 L 523.726562 48.5625 L 523.726562 47.769531 C 523.726562 45.636719 522.421875 44.714844 520.609375 44.714844 C 518.894531 44.714844 517.589844 45.257812 516.507812 45.894531 L 515.523438 43.953125 C 517.273438 42.902344 519.179688 42.457031 520.960938 42.457031 C 524.363281 42.457031 526.523438 44.082031 526.523438 47.707031 L 526.523438 53.175781 C 526.523438 55.75 526.621094 57.117188 526.8125 57.882812 L 524.394531 57.882812 L 523.917969 56.257812 "/>
<path style=" stroke:none;fill-rule:nonzero;fill:rgb(0%,0%,0%);fill-opacity:1;" d="M 531.582031 54.511719 L 531.582031 45.097656 L 529.007812 45.097656 L 529.007812 42.839844 L 531.582031 42.839844 L 531.582031 39.40625 L 534.378906 38.515625 L 534.378906 42.839844 L 538.894531 42.839844 L 538.132812 45.097656 L 534.378906 45.097656 L 534.378906 53.96875 C 534.378906 55.304688 534.921875 55.878906 535.90625 55.878906 C 536.859375 55.878906 537.71875 55.464844 538.324219 55.082031 L 539.246094 57.023438 C 538.261719 57.722656 536.765625 58.199219 535.269531 58.199219 C 532.949219 58.199219 531.582031 56.863281 531.582031 54.511719 "/>
<path style=" stroke:none;fill-rule:nonzero;fill:rgb(0%,0%,0%);fill-opacity:1;" d="M 551.234375 50.34375 C 551.234375 47.101562 549.644531 44.78125 547.007812 44.78125 C 544.335938 44.78125 542.746094 47.101562 542.746094 50.34375 C 542.746094 53.554688 544.335938 55.878906 546.972656 55.878906 C 549.644531 55.878906 551.234375 53.554688 551.234375 50.34375 Z M 539.851562 50.34375 C 539.851562 45.894531 542.679688 42.457031 547.007812 42.457031 C 551.265625 42.457031 554.128906 45.894531 554.128906 50.34375 C 554.128906 54.765625 551.300781 58.199219 546.972656 58.199219 C 542.679688 58.199219 539.851562 54.765625 539.851562 50.34375 "/>
<path style=" stroke:none;fill-rule:nonzero;fill:rgb(0%,0%,0%);fill-opacity:1;" d="M 557.535156 42.839844 L 560.332031 42.839844 L 560.332031 57.882812 L 557.535156 57.882812 Z M 557.121094 37.941406 C 557.121094 36.957031 557.851562 36.164062 558.902344 36.164062 C 559.980469 36.164062 560.746094 36.925781 560.746094 37.941406 C 560.746094 38.960938 559.949219 39.753906 558.902344 39.753906 C 557.851562 39.753906 557.121094 38.960938 557.121094 37.941406 "/>
<path style=" stroke:none;fill-rule:nonzero;fill:rgb(0%,0%,0%);fill-opacity:1;" d="M 564.46875 42.839844 L 566.820312 42.839844 L 567.136719 44.683594 C 568.726562 43 570 42.457031 571.367188 42.457031 C 572.003906 42.457031 572.703125 42.617188 573.148438 42.902344 L 572.160156 45.382812 C 571.6875 45.128906 571.207031 45.003906 570.730469 45.003906 C 569.652344 45.003906 568.664062 45.574219 567.265625 46.941406 L 567.265625 57.882812 L 564.46875 57.882812 L 564.46875 42.839844 "/>
<path style=" stroke:none;fill-rule:nonzero;fill:rgb(0%,0%,0%);fill-opacity:1;" d="M 583.355469 48.882812 C 583.292969 46.78125 582.277344 44.683594 580.019531 44.683594 C 577.855469 44.683594 576.550781 46.59375 576.519531 48.882812 Z M 573.65625 50.25 C 573.65625 45.671875 576.171875 42.457031 580.019531 42.457031 C 583.960938 42.457031 586.25 45.480469 586.25 50.28125 L 586.25 50.980469 L 576.519531 50.980469 C 576.582031 53.8125 578.300781 55.910156 581.289062 55.910156 C 582.722656 55.910156 583.960938 55.464844 585.011719 54.890625 L 585.902344 56.832031 C 584.5 57.722656 582.65625 58.199219 580.941406 58.199219 C 575.949219 58.199219 573.65625 54.542969 573.65625 50.25 "/>
<path style=" stroke:none;fill-rule:nonzero;fill:rgb(0%,0%,0%);fill-opacity:1;" d="M 589.082031 54.765625 C 590.070312 55.335938 591.339844 55.910156 592.960938 55.910156 C 594.648438 55.910156 596.015625 55.304688 596.015625 53.746094 C 596.015625 50.695312 588.953125 51.710938 588.953125 46.71875 C 588.953125 44.335938 590.832031 42.457031 594.234375 42.457031 C 595.730469 42.457031 597.097656 42.777344 598.175781 43.191406 L 598.175781 45.605469 C 597.097656 45.128906 595.855469 44.746094 594.363281 44.746094 C 592.960938 44.746094 591.722656 45.160156 591.722656 46.59375 C 591.722656 49.644531 598.78125 48.5625 598.78125 53.714844 C 598.78125 56.800781 596.175781 58.199219 593.058594 58.199219 C 590.957031 58.199219 589.242188 57.53125 588.191406 56.863281 L 589.082031 54.765625 "/>
<path style=" stroke:none;fill-rule:nonzero;fill:rgb(0%,0%,0%);fill-opacity:1;" d="M 609.371094 36.925781 L 612.109375 36.925781 L 621.582031 49.261719 C 622.824219 50.851562 623.714844 52.125 624.414062 53.175781 L 624.476562 53.175781 C 624.414062 52.03125 624.414062 51.011719 624.414062 49.519531 L 624.414062 36.925781 L 627.242188 36.925781 L 627.242188 57.882812 L 624.765625 57.882812 L 614.9375 45.066406 C 613.761719 43.539062 612.902344 42.332031 612.171875 41.28125 L 612.109375 41.28125 C 612.171875 42.269531 612.203125 43.285156 612.203125 44.78125 L 612.203125 57.882812 L 609.371094 57.882812 L 609.371094 36.925781 "/>
<path style=" stroke:none;fill-rule:nonzero;fill:rgb(0%,0%,0%);fill-opacity:1;" d="M 631.730469 55.335938 C 631.445312 54.511719 631.316406 53.714844 631.316406 52.476562 L 631.316406 42.839844 L 634.113281 42.839844 L 634.113281 51.964844 C 634.113281 52.921875 634.179688 53.589844 634.402344 54.191406 C 634.78125 55.242188 635.578125 55.75 636.816406 55.75 C 638.40625 55.75 639.902344 54.828125 640.664062 53.875 L 640.664062 42.839844 L 643.464844 42.839844 L 643.464844 53.238281 C 643.464844 55.75 643.558594 57.117188 643.78125 57.882812 L 641.300781 57.882812 L 640.824219 56.195312 C 639.554688 57.339844 637.898438 58.199219 635.925781 58.199219 C 634.464844 58.199219 632.523438 57.5625 631.730469 55.335938 "/>
<path style=" stroke:none;fill-rule:nonzero;fill:rgb(0%,0%,0%);fill-opacity:1;" d="M 646.867188 50.503906 C 646.867188 46.019531 649.921875 42.457031 654.5 42.457031 C 656.121094 42.457031 657.457031 42.902344 658.347656 43.414062 L 658.347656 45.859375 C 657.328125 45.191406 656.1875 44.78125 654.722656 44.78125 C 651.640625 44.78125 649.761719 47.164062 649.761719 50.34375 C 649.761719 53.875 651.640625 55.878906 654.53125 55.878906 C 656.058594 55.878906 657.140625 55.367188 658.125 54.828125 L 658.953125 56.800781 C 657.839844 57.5625 656.089844 58.199219 654.183594 58.199219 C 649.445312 58.199219 646.867188 54.765625 646.867188 50.503906 "/>
<path style=" stroke:none;fill-rule:nonzero;fill:rgb(0%,0%,0%);fill-opacity:1;" d="M 661.46875 35.367188 L 664.265625 35.367188 L 664.265625 54.128906 C 664.265625 55.273438 664.613281 55.625 665.410156 55.625 C 665.632812 55.625 666.078125 55.527344 666.332031 55.433594 L 666.90625 57.625 C 666.203125 57.914062 665.316406 58.070312 664.582031 58.070312 C 662.484375 58.070312 661.46875 56.925781 661.46875 54.921875 L 661.46875 35.367188 "/>
<path style=" stroke:none;fill-rule:nonzero;fill:rgb(0%,0%,0%);fill-opacity:1;" d="M 675.046875 36.320312 L 678.226562 36.320312 L 675.394531 40.996094 L 673.203125 40.996094 Z M 677.972656 48.882812 C 677.90625 46.78125 676.890625 44.683594 674.632812 44.683594 C 672.46875 44.683594 671.164062 46.59375 671.132812 48.882812 Z M 668.273438 50.25 C 668.273438 45.671875 670.785156 42.457031 674.632812 42.457031 C 678.574219 42.457031 680.863281 45.480469 680.863281 50.28125 L 680.863281 50.980469 L 671.132812 50.980469 C 671.199219 53.8125 672.914062 55.910156 675.902344 55.910156 C 677.335938 55.910156 678.574219 55.464844 679.625 54.890625 L 680.515625 56.832031 C 679.117188 57.722656 677.273438 58.199219 675.554688 58.199219 C 670.5625 58.199219 668.273438 54.542969 668.273438 50.25 "/>
<path style=" stroke:none;fill-rule:nonzero;fill:rgb(0%,0%,0%);fill-opacity:1;" d="M 689.867188 50.664062 C 688.65625 50.695312 687.863281 50.886719 687.226562 51.203125 C 686.464844 51.648438 686.050781 52.410156 686.050781 53.332031 C 686.050781 54.890625 687.066406 55.910156 688.691406 55.910156 C 690.40625 55.910156 691.679688 54.859375 692.316406 54.191406 L 692.316406 50.566406 Z M 692.503906 56.257812 C 691.359375 57.339844 689.898438 58.199219 688.023438 58.199219 C 685.253906 58.199219 683.1875 56.386719 683.1875 53.492188 C 683.1875 51.488281 684.203125 50.152344 685.730469 49.421875 C 686.78125 48.914062 687.988281 48.722656 689.515625 48.660156 L 692.316406 48.5625 L 692.316406 47.769531 C 692.316406 45.636719 691.011719 44.714844 689.199219 44.714844 C 687.480469 44.714844 686.175781 45.257812 685.097656 45.894531 L 684.109375 43.953125 C 685.859375 42.902344 687.765625 42.457031 689.546875 42.457031 C 692.949219 42.457031 695.113281 44.082031 695.113281 47.707031 L 695.113281 53.175781 C 695.113281 55.75 695.207031 57.117188 695.398438 57.882812 L 692.984375 57.882812 L 692.503906 56.257812 "/>
<path style=" stroke:none;fill-rule:nonzero;fill:rgb(0%,0%,0%);fill-opacity:1;" d="M 699.214844 42.839844 L 702.015625 42.839844 L 702.015625 57.882812 L 699.214844 57.882812 Z M 698.804688 37.941406 C 698.804688 36.957031 699.535156 36.164062 700.582031 36.164062 C 701.664062 36.164062 702.429688 36.925781 702.429688 37.941406 C 702.429688 38.960938 701.632812 39.753906 700.582031 39.753906 C 699.535156 39.753906 698.804688 38.960938 698.804688 37.941406 "/>
<path style=" stroke:none;fill-rule:nonzero;fill:rgb(0%,0%,0%);fill-opacity:1;" d="M 706.148438 42.839844 L 708.503906 42.839844 L 708.820312 44.683594 C 710.410156 43 711.683594 42.457031 713.050781 42.457031 C 713.6875 42.457031 714.386719 42.617188 714.828125 42.902344 L 713.84375 45.382812 C 713.367188 45.128906 712.890625 45.003906 712.414062 45.003906 C 711.332031 45.003906 710.347656 45.574219 708.949219 46.941406 L 708.949219 57.882812 L 706.148438 57.882812 L 706.148438 42.839844 "/>
<path style=" stroke:none;fill-rule:nonzero;fill:rgb(0%,0%,0%);fill-opacity:1;" d="M 725.039062 48.882812 C 724.976562 46.78125 723.957031 44.683594 721.699219 44.683594 C 719.539062 44.683594 718.234375 46.59375 718.203125 48.882812 Z M 715.339844 50.25 C 715.339844 45.671875 717.851562 42.457031 721.699219 42.457031 C 725.644531 42.457031 727.933594 45.480469 727.933594 50.28125 L 727.933594 50.980469 L 718.203125 50.980469 C 718.265625 53.8125 719.984375 55.910156 722.972656 55.910156 C 724.402344 55.910156 725.644531 55.464844 726.691406 54.890625 L 727.582031 56.832031 C 726.183594 57.722656 724.339844 58.199219 722.621094 58.199219 C 717.628906 58.199219 715.339844 54.542969 715.339844 50.25 "/>
<path style=" stroke:none;fill-rule:nonzero;fill:rgb(0%,0%,0%);fill-opacity:1;" d="M 730.765625 54.765625 C 731.75 55.335938 733.023438 55.910156 734.644531 55.910156 C 736.328125 55.910156 737.699219 55.304688 737.699219 53.746094 C 737.699219 50.695312 730.636719 51.710938 730.636719 46.71875 C 730.636719 44.335938 732.515625 42.457031 735.914062 42.457031 C 737.410156 42.457031 738.777344 42.777344 739.859375 43.191406 L 739.859375 45.605469 C 738.777344 45.128906 737.539062 44.746094 736.042969 44.746094 C 734.644531 44.746094 733.40625 45.160156 733.40625 46.59375 C 733.40625 49.644531 740.464844 48.5625 740.464844 53.714844 C 740.464844 56.800781 737.855469 58.199219 734.742188 58.199219 C 732.640625 58.199219 730.925781 57.53125 729.875 56.863281 L 730.765625 54.765625 "/>
<path style=" stroke:none;fill-rule:nonzero;fill:rgb(0%,0%,0%);fill-opacity:1;" d="M 458.414062 86.753906 C 456.316406 87.867188 454.25 88.28125 452.3125 88.28125 C 445.855469 88.28125 442.105469 83.859375 442.105469 77.722656 C 442.105469 71.648438 446.363281 66.816406 452.726562 66.816406 C 454.984375 66.816406 456.890625 67.324219 458.003906 67.929688 L 458.003906 70.570312 C 456.507812 69.773438 454.886719 69.234375 452.789062 69.234375 C 447.953125 69.234375 445.09375 72.921875 445.09375 77.597656 C 445.09375 82.460938 447.988281 85.863281 452.597656 85.863281 C 454.570312 85.863281 456.160156 85.292969 457.621094 84.496094 L 458.414062 86.753906 "/>
<path style=" stroke:none;fill-rule:nonzero;fill:rgb(0%,0%,0%);fill-opacity:1;" d="M 467.324219 80.746094 C 466.113281 80.777344 465.320312 80.96875 464.683594 81.285156 C 463.921875 81.730469 463.507812 82.492188 463.507812 83.414062 C 463.507812 84.972656 464.523438 85.992188 466.148438 85.992188 C 467.863281 85.992188 469.136719 84.941406 469.773438 84.273438 L 469.773438 80.648438 Z M 469.960938 86.339844 C 468.816406 87.421875 467.355469 88.28125 465.480469 88.28125 C 462.710938 88.28125 460.644531 86.46875 460.644531 83.574219 C 460.644531 81.570312 461.660156 80.234375 463.1875 79.503906 C 464.238281 78.996094 465.445312 78.804688 466.972656 78.742188 L 469.773438 78.644531 L 469.773438 77.851562 C 469.773438 75.71875 468.46875 74.796875 466.65625 74.796875 C 464.9375 74.796875 463.632812 75.339844 462.554688 75.972656 L 461.566406 74.035156 C 463.316406 72.984375 465.222656 72.539062 467.003906 72.539062 C 470.40625 72.539062 472.570312 74.160156 472.570312 77.785156 L 472.570312 83.257812 C 472.570312 85.832031 472.664062 87.199219 472.855469 87.960938 L 470.441406 87.960938 L 469.960938 86.339844 "/>
<path style=" stroke:none;fill-rule:nonzero;fill:rgb(0%,0%,0%);fill-opacity:1;" d="M 476.386719 72.921875 L 478.773438 72.921875 L 479.089844 74.765625 C 480.710938 73.429688 482.398438 72.539062 484.304688 72.539062 C 486.691406 72.539062 488.882812 73.9375 488.882812 77.882812 L 488.882812 87.960938 L 486.085938 87.960938 L 486.085938 78.804688 C 486.085938 76.675781 485.578125 75.019531 483.511719 75.019531 C 481.984375 75.019531 480.519531 75.910156 479.183594 77.054688 L 479.183594 87.960938 L 476.386719 87.960938 L 476.386719 72.921875 "/>
<path style=" stroke:none;fill-rule:nonzero;fill:rgb(0%,0%,0%);fill-opacity:1;" d="M 498.585938 80.746094 C 497.378906 80.777344 496.582031 80.96875 495.945312 81.285156 C 495.183594 81.730469 494.769531 82.492188 494.769531 83.414062 C 494.769531 84.972656 495.785156 85.992188 497.410156 85.992188 C 499.125 85.992188 500.398438 84.941406 501.035156 84.273438 L 501.035156 80.648438 Z M 501.226562 86.339844 C 500.078125 87.421875 498.617188 88.28125 496.742188 88.28125 C 493.976562 88.28125 491.90625 86.46875 491.90625 83.574219 C 491.90625 81.570312 492.925781 80.234375 494.453125 79.503906 C 495.5 78.996094 496.710938 78.804688 498.234375 78.742188 L 501.035156 78.644531 L 501.035156 77.851562 C 501.035156 75.71875 499.730469 74.796875 497.917969 74.796875 C 496.199219 74.796875 494.898438 75.339844 493.816406 75.972656 L 492.828125 74.035156 C 494.578125 72.984375 496.488281 72.539062 498.269531 72.539062 C 501.671875 72.539062 503.832031 74.160156 503.832031 77.785156 L 503.832031 83.257812 C 503.832031 85.832031 503.929688 87.199219 504.117188 87.960938 L 501.703125 87.960938 L 501.226562 86.339844 "/>
<path style=" stroke:none;fill-rule:nonzero;fill:rgb(0%,0%,0%);fill-opacity:1;" d="M 517.191406 85.546875 L 517.191406 75.242188 C 516.488281 75.019531 515.949219 74.894531 514.996094 74.894531 C 512.101562 74.894531 509.78125 76.929688 509.78125 80.554688 C 509.78125 83.859375 511.785156 85.894531 515.027344 85.894531 C 515.726562 85.894531 516.617188 85.800781 517.191406 85.546875 Z M 506.886719 80.617188 C 506.886719 75.785156 510.351562 72.539062 514.835938 72.539062 C 515.601562 72.539062 516.425781 72.605469 517.191406 72.828125 L 517.191406 65.449219 L 519.988281 65.449219 L 519.988281 87.230469 C 518.8125 87.867188 516.871094 88.28125 514.964844 88.28125 C 510.480469 88.28125 506.886719 85.640625 506.886719 80.617188 "/>
<path style=" stroke:none;fill-rule:nonzero;fill:rgb(0%,0%,0%);fill-opacity:1;" d="M 524.316406 72.921875 L 527.113281 72.921875 L 527.113281 87.960938 L 524.316406 87.960938 Z M 523.902344 68.023438 C 523.902344 67.039062 524.632812 66.242188 525.683594 66.242188 C 526.761719 66.242188 527.527344 67.007812 527.527344 68.023438 C 527.527344 69.042969 526.730469 69.835938 525.683594 69.835938 C 524.632812 69.835938 523.902344 69.042969 523.902344 68.023438 "/>
<path style=" stroke:none;fill-rule:nonzero;fill:rgb(0%,0%,0%);fill-opacity:1;" d="M 540.183594 78.964844 C 540.117188 76.863281 539.101562 74.765625 536.84375 74.765625 C 534.683594 74.765625 533.378906 76.675781 533.347656 78.964844 Z M 530.484375 80.332031 C 530.484375 75.75 532.996094 72.539062 536.84375 72.539062 C 540.785156 72.539062 543.078125 75.5625 543.078125 80.363281 L 543.078125 81.0625 L 533.347656 81.0625 C 533.410156 83.890625 535.128906 85.992188 538.117188 85.992188 C 539.546875 85.992188 540.785156 85.546875 541.835938 84.972656 L 542.726562 86.914062 C 541.328125 87.804688 539.484375 88.28125 537.765625 88.28125 C 532.773438 88.28125 530.484375 84.625 530.484375 80.332031 "/>
<path style=" stroke:none;fill-rule:nonzero;fill:rgb(0%,0%,0%);fill-opacity:1;" d="M 546.226562 72.921875 L 548.613281 72.921875 L 548.929688 74.765625 C 550.550781 73.429688 552.238281 72.539062 554.144531 72.539062 C 556.53125 72.539062 558.722656 73.9375 558.722656 77.882812 L 558.722656 87.960938 L 555.925781 87.960938 L 555.925781 78.804688 C 555.925781 76.675781 555.414062 75.019531 553.351562 75.019531 C 551.824219 75.019531 550.359375 75.910156 549.023438 77.054688 L 549.023438 87.960938 L 546.226562 87.960938 L 546.226562 72.921875 "/>
<path style=" stroke:none;fill-rule:nonzero;fill:rgb(0%,0%,0%);fill-opacity:1;" d="M 562.253906 84.847656 C 563.242188 85.417969 564.511719 85.992188 566.136719 85.992188 C 567.820312 85.992188 569.1875 85.386719 569.1875 83.828125 C 569.1875 80.777344 562.128906 81.792969 562.128906 76.800781 C 562.128906 74.417969 564.003906 72.539062 567.40625 72.539062 C 568.902344 72.539062 570.269531 72.859375 571.351562 73.269531 L 571.351562 75.6875 C 570.269531 75.210938 569.027344 74.828125 567.535156 74.828125 C 566.136719 74.828125 564.894531 75.242188 564.894531 76.675781 C 564.894531 79.726562 571.953125 78.644531 571.953125 83.796875 C 571.953125 86.882812 569.347656 88.28125 566.230469 88.28125 C 564.132812 88.28125 562.414062 87.613281 561.367188 86.945312 L 562.253906 84.847656 "/>
<path style=" stroke:none;fill-rule:nonzero;fill:rgb(0%,0%,0%);fill-opacity:1;" d="M 422.96875 92.285156 C 422.28125 92.285156 421.730469 91.734375 421.730469 91.042969 L 421.730469 32.285156 C 421.730469 31.597656 422.28125 31.042969 422.96875 31.042969 C 423.652344 31.042969 424.203125 31.597656 424.203125 32.285156 L 424.203125 91.042969 C 424.203125 91.734375 423.652344 92.285156 422.96875 92.285156 "/>
</g>
</svg>
