<svg xmlns="http://www.w3.org/2000/svg" xmlns:xlink="http://www.w3.org/1999/xlink" version="1.1" x="0px" y="0px" viewBox="0 0 100 125" style="enable-background:new 0 0 100 100;" xml:space="preserve"><style type="text/css">
	.st0{fill:#FFFFFF; fill-rule:evenodd; clip-rule:evenodd;}
</style><path class="st0" d="M78.275,21.725c-15.615-15.616-40.934-15.616-56.55,0c-15.616,15.616-15.616,40.934,0,56.55  s40.934,15.616,56.55,0C93.891,62.659,93.891,37.34,78.275,21.725L78.275,21.725z M54.699,29.758v17.06  c0,2.634,3.364,2.025,5.972,2.025L50,59.515L39.329,48.844c2.608,0,5.973,0.609,5.973-2.025v-17.06H54.699L54.699,29.758z   M43.276,25.708h13.448c1.118,0,2.025,0.907,2.025,2.025v17.06h6.811c1.807,0,2.697,2.192,1.432,3.457l-15.56,15.56  c-0.791,0.791-2.073,0.791-2.864,0l-15.56-15.56c-1.277-1.277-0.358-3.457,1.432-3.457l6.811,0v-17.06  C41.251,26.615,42.158,25.708,43.276,25.708L43.276,25.708z M32.215,74.291c-2.666,0-2.666-4.05,0-4.05h35.57  c2.666,0,2.666,4.05,0,4.05H32.215z"/><text x="0" y="115" fill="#000000" font-size="5px" font-weight="bold" font-family="'Helvetica Neue', Helvetica, Arial-Unicode, Arial, Sans-serif"></text><text x="0" y="120" fill="#000000" font-size="5px" font-weight="bold" font-family="'Helvetica Neue', Helvetica, Arial-Unicode, Arial, Sans-serif"></text></svg>